<svg width="42" height="42" class="size-[30px]" viewBox="0 0 32 32" fill="none" xmlns="http://www.w3.org/2000/svg">
  <g clip-path="url(#clip0_738_7356)">
    <path
      d="M16 32C24.8667 32 32 24.8667 32 16C32 7.13328 24.8667 0 16 0C7.13328 0 0 7.13328 0 16C0 24.8667 7.13328 32 16 32Z"
      fill="#2775CA"></path>
    <path
      d="M20.4 18.5331C20.4 16.1999 19 15.3999 16.2 15.0666C14.2001 14.7999 13.8001 14.2666 13.8001 13.3331C13.8001 12.3997 14.4668 11.7998 15.8 11.7998C17 11.7998 17.6667 12.1998 18 13.1999C18.0667 13.3999 18.2667 13.5331 18.4667 13.5331H19.5333C19.8 13.5331 20 13.3331 20 13.0666V12.9998C19.7333 11.5331 18.5333 10.3998 17 10.2666V8.66656C17 8.39984 16.8 8.19984 16.4668 8.13312H15.4668C15.2 8.13312 15 8.33312 14.9333 8.66656V10.1998C12.9333 10.4666 11.6668 11.7998 11.6668 13.4666C11.6668 15.6666 13.0001 16.5331 15.8 16.8666C17.6667 17.1999 18.2667 17.5999 18.2667 18.6666C18.2667 19.7333 17.3333 20.4666 16.0668 20.4666C14.3333 20.4666 13.7333 19.7331 13.5333 18.7331C13.4668 18.4666 13.2668 18.3331 13.0668 18.3331H11.9334C11.6668 18.3331 11.4668 18.5331 11.4668 18.7999V18.8666C11.7334 20.5331 12.8001 21.7332 15 22.0666V23.6666C15 23.9332 15.2 24.1332 15.5333 24.1999H16.5333C16.8 24.1999 17 23.9999 17.0667 23.6666V22.0666C19.0667 21.7332 20.4 20.3331 20.4 18.5331Z"
      fill="white"></path>
    <path
      d="M12.6003 25.5334C7.40032 23.6669 4.7336 17.8669 6.66704 12.7334C7.66704 9.93343 9.86704 7.80015 12.6003 6.80015C12.867 6.66687 13.0003 6.46687 13.0003 6.13343V5.20015C13.0003 4.93343 12.867 4.73343 12.6003 4.66687C12.5336 4.66687 12.4003 4.66687 12.3336 4.73343C6.00032 6.73343 2.5336 13.4669 4.5336 19.8001C5.7336 23.5334 8.60032 26.4002 12.3336 27.6002C12.6003 27.7334 12.867 27.6001 12.9336 27.3334C13.0003 27.2669 13.0003 27.2002 13.0003 27.0669V26.1334C13.0003 25.9334 12.8003 25.6669 12.6003 25.5334ZM19.667 4.73343C19.4003 4.60015 19.1336 4.73343 19.067 5.00015C19.0003 5.06687 19.0003 5.13343 19.0003 5.26687V6.20015C19.0003 6.46687 19.2003 6.73343 19.4003 6.86687C24.6003 8.73343 27.267 14.5334 25.3336 19.6669C24.3336 22.4669 22.1336 24.6002 19.4003 25.6002C19.1336 25.7334 19.0003 25.9334 19.0003 26.2669V27.2001C19.0003 27.4669 19.1336 27.6669 19.4003 27.7334C19.467 27.7334 19.6003 27.7334 19.667 27.6669C26.0003 25.6669 29.467 18.9334 27.467 12.6002C26.267 8.80015 23.3336 5.93343 19.667 4.73343Z"
      fill="white"></path>
  </g>
  <defs>
    <clipPath id="clip0_738_7356">
      <rect width="32" height="32" fill="white"></rect>
    </clipPath>
  </defs>
</svg>