<svg width="32" height="32" viewBox="0 0 32 32" fill="none" xmlns="http://www.w3.org/2000/svg">
<g clip-path="url(#clip0_3081_15424)">
<g clip-path="url(#clip1_3081_15424)">
<path d="M16 31.9688C24.8366 31.9688 32 24.8053 32 15.9688C32 7.13219 24.8366 -0.03125 16 -0.03125C7.16344 -0.03125 0 7.13219 0 15.9688C0 24.8053 7.16344 31.9688 16 31.9688Z" fill="#009393"/>
<path fill-rule="evenodd" clip-rule="evenodd" d="M16.0197 17.1124C18.7713 17.1124 21.0709 16.6472 21.6329 16.0256C21.1557 15.4984 19.4297 15.0832 17.2377 14.9696V16.2828C16.8453 16.3032 16.4373 16.3132 16.0193 16.3132C15.6013 16.3132 15.1933 16.3032 14.8001 16.2828V14.9696C12.6089 15.0832 10.8821 15.4984 10.4049 16.0256C10.9677 16.6472 13.2677 17.1124 16.0193 17.1124H16.0197ZM20.9085 10.9312V12.7396H17.2377V13.9936C19.8161 14.1276 21.7509 14.6788 21.7653 15.3384V16.7136C21.7509 17.3732 19.8161 17.9232 17.2377 18.0576V21.1352H14.8005V18.0576C12.2221 17.9236 10.2881 17.3732 10.2737 16.7136V15.3384C10.2881 14.6788 12.2221 14.1276 14.8005 13.9936V12.7396H11.1297V10.9312H20.9089H20.9085ZM9.68612 8.05316H22.5725C22.8805 8.05316 23.1641 8.21516 23.3177 8.47836L27.0717 14.9248C27.2661 15.2592 27.2085 15.6812 26.9309 15.952L16.5973 26.0392C16.2621 26.366 15.7237 26.366 15.3893 26.0392L5.06852 15.9656C4.78492 15.688 4.73133 15.254 4.94053 14.918L8.95372 8.45836C9.11012 8.20716 9.38772 8.05356 9.68652 8.05356L9.68612 8.05316Z" fill="white"/>
</g>
</g>
<defs>
<clipPath id="clip0_3081_15424">
<rect width="32" height="32" fill="white"/>
</clipPath>
<clipPath id="clip1_3081_15424">
<rect width="32" height="32" fill="white" transform="translate(0 -0.03125)"/>
</clipPath>
</defs>
</svg>
