<svg width="30" height="30" class="" viewBox="0 0 32 32" fill="none" xmlns="http://www.w3.org/2000/svg">
  <g clip-path="url(#clip0_336_18668)">
    <path
      d="M0 4.8C0 2.14903 2.14903 0 4.8 0H27.2C29.851 0 32 2.14903 32 4.8V27.2C32 29.851 29.851 32 27.2 32H4.8C2.14903 32 0 29.851 0 27.2V4.8Z"
      fill="#2D374B"></path>
    <path
      d="M14.9666 5.8537L7.35219 10.2517C7.06271 10.4188 6.82232 10.6592 6.65524 10.9487C6.48816 11.2382 6.40027 11.5666 6.40039 11.9009L6.40516 20.7065C6.40538 21.0402 6.49333 21.3681 6.66021 21.6571C6.82709 21.9461 7.06702 22.1861 7.35596 22.3533L14.9792 26.7601C15.2685 26.9271 15.5968 27.0151 15.931 27.0151C16.2651 27.0151 16.5934 26.9271 16.8828 26.7601L24.4971 22.3634C24.7866 22.1963 25.027 21.9558 25.1941 21.6664C25.3611 21.3769 25.449 21.0485 25.4489 20.7141L25.4442 11.9086C25.4439 11.5749 25.3559 11.2471 25.189 10.9581C25.0222 10.6691 24.7822 10.429 24.4934 10.262L16.8702 5.85501C16.5808 5.68794 16.2525 5.59998 15.9183 5.59998C15.5842 5.59998 15.2559 5.68794 14.9666 5.85501V5.8537Z"
      fill="white"></path>
    <path
      d="M12.4528 23.7836C12.4646 23.7262 12.4902 23.6726 12.5276 23.6275C14.8054 19.7626 17.0835 15.8978 19.362 12.0332C19.3937 11.9795 19.423 11.9244 19.45 11.8763C19.4299 11.8414 19.4071 11.8486 19.3878 11.8486C18.4143 11.8521 17.4409 11.8583 16.4667 11.8571C16.4251 11.8564 16.3842 11.8684 16.3497 11.8916C16.3151 11.9148 16.2884 11.948 16.2733 11.9868C15.539 13.2011 14.8037 14.4152 14.0675 15.6289C12.508 18.2019 10.9483 20.7749 9.38848 23.3478C9.37472 23.3706 9.36024 23.3929 9.348 23.4163C9.3204 23.4695 9.28904 23.4779 9.23312 23.4454C8.99104 23.3025 8.7464 23.1642 8.4892 23.0162L15.4308 11.8832C15.4158 11.8379 15.3851 11.8493 15.3615 11.8484C14.9895 11.8373 14.6174 11.8212 14.2456 11.8179C13.7234 11.8025 13.2031 11.8863 12.7122 12.065C12.2652 12.2306 11.8853 12.539 11.6314 12.9425C10.3631 14.9207 9.09008 16.8958 7.81215 18.8679C7.79212 18.8991 7.7708 18.9296 7.75012 18.9605C7.67694 18.9605 7.68775 18.9001 7.68102 18.8579C7.67454 18.7944 7.67304 18.7305 7.67645 18.6667C7.67645 16.4855 7.684 14.3042 7.66972 12.1231C7.65825 11.9352 7.70343 11.7482 7.79944 11.5862C7.89547 11.4242 8.03792 11.2948 8.20832 11.2146C9.8856 10.2585 11.5521 9.28256 13.2239 8.31664C13.9701 7.88553 14.7186 7.45854 15.4594 7.01841C15.5986 6.92492 15.7626 6.875 15.9305 6.875C16.0982 6.875 16.2622 6.92492 16.4016 7.01841C17.7637 7.81775 19.1378 8.59856 20.507 9.38656C21.5396 9.9812 22.5727 10.5747 23.6064 11.1673C23.6804 11.2094 23.7524 11.2546 23.8267 11.2961C23.9476 11.3603 24.0475 11.4578 24.1148 11.577C24.182 11.6962 24.2137 11.8322 24.2062 11.9689C24.2081 14.3416 24.2081 16.7143 24.2062 19.087C24.211 19.1454 24.2046 19.2042 24.1874 19.2602C24.1054 19.3394 24.0757 19.2505 24.0458 19.2082C23.9228 19.0351 23.8123 18.8528 23.6979 18.6736C22.782 17.2399 21.863 15.8082 20.941 14.3782C20.6312 13.895 20.3174 13.4137 20.0109 12.9284C19.9393 12.8152 19.9264 12.8135 19.8548 12.9351C19.3922 13.7178 18.93 14.5006 18.468 15.2836C18.4426 15.3271 18.4317 15.3775 18.4368 15.4277C18.4418 15.4778 18.4626 15.525 18.4962 15.5626C18.8771 16.1772 19.2574 16.7922 19.6369 17.4078L21.5826 20.5552C21.8452 20.9806 22.1082 21.4055 22.3716 21.8302C22.4206 21.887 22.4481 21.9593 22.4494 22.0343C22.3968 22.139 22.287 22.1683 22.1955 22.2159C22.0455 22.3242 21.8807 22.4103 21.7061 22.4714C21.6118 22.448 21.5786 22.363 21.5339 22.2934C20.9314 21.3538 20.3368 20.4094 19.7383 19.4674C19.1227 18.4992 18.5102 17.5274 17.892 16.5602C17.8127 16.4361 17.8001 16.4353 17.7256 16.5602C17.1878 17.4649 16.6574 18.3738 16.1183 19.2775C16.0908 19.3198 16.0772 19.3698 16.0796 19.4203C16.082 19.4708 16.1002 19.5192 16.1317 19.5588C16.8578 20.678 17.5672 21.807 18.2857 22.9318C18.486 23.2452 18.6878 23.5575 18.8846 23.8732C18.923 23.9346 18.9755 23.9958 18.9407 24.0788C18.7522 24.2256 18.5486 24.3521 18.3336 24.4562C17.6625 24.8467 16.9911 25.2366 16.3194 25.626C16.2118 25.6954 16.0864 25.7324 15.9583 25.7324C15.8302 25.7324 15.7049 25.6954 15.5973 25.626C14.6079 25.0536 13.6167 24.4838 12.6237 23.9166C12.5552 23.8894 12.496 23.8433 12.4528 23.7836Z"
      fill="#2D374B"></path>
    <path
      d="M24.1585 19.2834C24.1605 19.7507 24.1708 20.2187 24.1603 20.6855C24.1632 20.7948 24.1358 20.9028 24.0811 20.9975C24.0263 21.0923 23.9465 21.1699 23.8503 21.2221C23.3797 21.4886 22.9175 21.7702 22.4426 22.0295C22.2538 21.6848 22.0357 21.3567 21.8292 21.0219C20.7571 19.2841 19.6838 17.5474 18.6092 15.8116C18.5449 15.7075 18.4859 15.5995 18.4141 15.5013C18.3906 15.4731 18.3779 15.4375 18.3779 15.4009C18.3779 15.3643 18.3906 15.3288 18.4141 15.3006C18.6706 14.8716 18.9228 14.4402 19.1767 14.0095L19.8814 12.8141C19.8938 12.7857 19.9159 12.7625 19.9435 12.7484C20.0661 12.9373 20.1897 13.1279 20.313 13.3186C21.0544 14.4727 21.7955 15.6269 22.5365 16.7811C23.039 17.5642 23.5415 18.3474 24.0438 19.1306C24.0714 19.1887 24.1104 19.2407 24.1585 19.2834Z"
      fill="white"></path>
    <path
      d="M21.7037 22.4578C21.3977 22.6586 21.0732 22.8295 20.7577 23.0157C20.1858 23.3519 19.6103 23.6819 19.0365 24.0144C19.0037 24.033 18.9709 24.0503 18.9392 24.0683C18.9319 24.0151 18.909 23.9654 18.8735 23.9253C18.3625 23.1222 17.8514 22.3192 17.3403 21.5164C16.9203 20.8572 16.4991 20.1986 16.0767 19.5407C16.0481 19.5065 16.0315 19.4639 16.0295 19.4195C16.0275 19.375 16.0401 19.3311 16.0656 19.2945C16.6301 18.3436 17.1925 17.3912 17.7524 16.4375C17.7657 16.4155 17.7763 16.3899 17.8093 16.3828C17.8553 16.3931 17.8664 16.4391 17.8882 16.4734C18.9057 18.076 19.9231 19.6787 20.9405 21.2816C21.157 21.6228 21.3725 21.9648 21.5902 22.3053C21.618 22.3629 21.6567 22.4145 21.7037 22.4578Z"
      fill="white"></path>
  </g>
  <defs>
    <clipPath id="clip0_336_18668">
      <rect width="32" height="32" rx="8" fill="white"></rect>
    </clipPath>
  </defs>
</svg>