<svg width="32" height="32" viewBox="0 0 32 32" fill="none" xmlns="http://www.w3.org/2000/svg">
<g clip-path="url(#clip0_3174_104137)">
<rect width="32" height="32" fill="black"/>
<path d="M21.6877 12.5592H19.8549C19.6413 12.5592 19.4381 12.4676 19.2968 12.308L18.5533 11.4681C18.4426 11.3428 18.2832 11.2715 18.1163 11.2715C17.9494 11.2715 17.7899 11.3432 17.6792 11.4681L17.0416 12.1888C16.8328 12.4243 16.5333 12.5596 16.2186 12.5596H6.18604C5.90031 13.374 5.714 14.2342 5.63965 15.1264H15.1107C15.2772 15.1264 15.4366 15.0586 15.5517 14.9384L16.4335 14.0181C16.5437 13.9031 16.6958 13.8383 16.8549 13.8383H16.8912C17.0585 13.8383 17.2176 13.91 17.3283 14.0354L18.0713 14.8753C18.2127 15.0352 18.4158 15.1264 18.6294 15.1264H26.3601C26.2858 14.2338 26.0995 13.3736 25.8137 12.5596L21.6877 12.5592Z" fill="white"/>
<path d="M11.3711 20.5235C11.5375 20.5235 11.697 20.4556 11.812 20.3355L12.6938 19.4152C12.804 19.3002 12.9562 19.2354 13.1152 19.2354H13.1516C13.3188 19.2354 13.478 19.3071 13.5886 19.432L14.3316 20.2719C14.473 20.4319 14.6762 20.5231 14.8897 20.5231H25.3663C25.7588 19.7122 26.0462 18.842 26.2174 17.9303H16.1615C15.948 17.9303 15.7448 17.8387 15.6034 17.6792L14.8604 16.8393C14.7496 16.7139 14.5902 16.6426 14.4233 16.6426C14.2564 16.6426 14.0969 16.7143 13.9863 16.8393L13.3487 17.5599C13.1399 17.7955 12.8404 17.9307 12.5252 17.9307H5.78223C5.9534 18.8424 6.2413 19.7126 6.63336 20.5235H11.3711Z" fill="white"/>
<path d="M18.8035 9.75289C18.97 9.75289 19.1295 9.68497 19.2445 9.56481L20.1263 8.64449C20.2365 8.52953 20.3887 8.46473 20.5478 8.46473H20.5841C20.7514 8.46473 20.9104 8.53649 21.0211 8.66185L21.7642 9.50169C21.9055 9.66169 22.1087 9.75289 22.3223 9.75289H24.3146C22.4174 7.231 19.3997 5.59961 16.0003 5.59961C12.6009 5.59961 9.58321 7.231 7.68555 9.75289H18.8035Z" fill="white"/>
<path d="M14.8017 23.0924H12.0771C11.8636 23.0924 11.6604 23.0008 11.5191 22.8413L10.776 22.0014C10.6653 21.876 10.5058 21.8047 10.3389 21.8047C10.1721 21.8047 10.0126 21.8764 9.90188 22.0014L9.26428 22.722C9.05556 22.9576 8.75596 23.0929 8.44084 23.0929H8.39844C10.2966 25.1267 12.9996 26.3997 16.0008 26.3997C19.002 26.3997 21.7046 25.1267 23.6032 23.0929L14.8017 23.0924Z" fill="white"/>
</g>
<defs>
<clipPath id="clip0_3174_104137">
<rect width="32" height="32" rx="8" fill="white"/>
</clipPath>
</defs>
</svg>
